<?xml version="1.0" standalone="no"?>
<!DOCTYPE svg PUBLIC "-//W3C//DTD SVG 20010904//EN"
 "http://www.w3.org/TR/2001/REC-SVG-20010904/DTD/svg10.dtd">
<svg version="1.0" xmlns="http://www.w3.org/2000/svg"
 width="192.000000pt" height="192.000000pt" viewBox="0 0 192.000000 192.000000"
 preserveAspectRatio="xMidYMid meet">
<metadata>
Created by potrace 1.11, written by Peter Selinger 2001-2013
</metadata>
<g transform="translate(0.000000,192.000000) scale(0.100000,-0.100000)"
fill="#000000" stroke="none">
<path d="M1134 1740 c-23 -12 -52 -32 -65 -46 l-24 -25 28 10 c61 23 125 13
309 -49 98 -33 197 -64 220 -68 111 -18 216 10 286 78 17 17 32 33 32 35 0 2
-16 -3 -36 -11 -36 -15 -141 -20 -197 -9 -16 3 -95 26 -175 52 -121 37 -164
46 -242 49 -81 4 -101 1 -136 -16z"/>
<path d="M415 1529 c-126 -26 -241 -50 -255 -52 -121 -22 -150 -30 -150 -46 0
-9 13 -79 29 -156 16 -77 50 -241 75 -365 25 -124 61 -301 80 -395 20 -93 38
-183 41 -200 27 -147 28 -150 60 -149 28 0 50 4 114 18 36 8 141 93 205 166
31 36 56 68 56 71 0 3 -35 23 -77 44 -234 115 -370 399 -308 640 42 161 170
282 349 329 32 8 59 16 61 18 5 6 -36 128 -43 127 -4 -1 -110 -23 -237 -50z"/>
<path d="M831 1521 c-1 -7 17 -83 40 -170 47 -180 42 -163 63 -266 24 -118 32
-192 30 -270 -5 -229 -87 -396 -276 -560 -35 -30 -38 -36 -18 -30 73 20 191
116 278 224 20 25 40 48 43 51 3 3 75 100 160 215 84 116 156 212 159 215 3 3
27 32 55 65 74 89 187 205 256 261 118 95 119 98 29 53 -100 -48 -163 -86
-320 -187 -126 -82 -184 -112 -209 -107 -9 2 -21 4 -27 4 -21 2 -73 64 -105
124 -17 33 -51 112 -75 176 -25 64 -49 125 -54 136 -4 11 -13 34 -18 50 -6 17
-11 24 -11 16z"/>
<path d="M1102 1488 c-93 -45 31 -218 157 -218 123 0 92 150 -44 211 -45 21
-79 23 -113 7z"/>
<path d="M661 1333 c-165 -56 -277 -217 -272 -393 3 -160 107 -310 252 -364
l45 -17 42 27 42 28 0 68 c0 57 -5 75 -29 115 -16 27 -31 60 -35 75 -4 18 -22
38 -48 55 -36 24 -52 28 -115 28 -40 0 -73 3 -73 8 0 4 7 7 15 7 8 0 23 4 33
10 31 18 141 50 170 50 58 0 66 16 59 123 -6 93 -23 183 -36 191 -3 2 -26 -3
-50 -11z"/>
<path d="M1385 845 c-76 -154 -252 -418 -343 -514 -19 -20 -10 -23 39 -11 36
9 127 28 309 64 8 2 47 9 85 16 39 7 73 17 76 22 3 5 0 35 -7 66 -7 31 -15 68
-18 82 -15 82 -78 386 -81 388 -2 2 -29 -49 -60 -113z"/>
</g>
</svg>
